<?xml version="1.0" encoding="UTF-8"?>
<svg xmlns="http://www.w3.org/2000/svg" viewBox="0 0 1024 1024">
<rect width="1024" height="1024" rx="192" fill="#000000"/>
<path fill="#ffffff" transform="translate(-180.98 -168.39) scale(1.094759)" d="
  M 279.33 640.07
  Q 276.84 605.83 279.66 576.77
  Q 280.65 566.51 283.16 549.85
  C 286.61 526.98 293.34 503.83 301.64 482.38
  Q 303.18 478.41 308.92 464.61
  Q 311.57 458.25 313.73 454.38
  C 316.17 450.03 317.98 445.14 320.45 440.86
  C 324.03 434.64 326.43 429.61 330.74 422.54
  Q 370.60 357.14 432.05 312.25
  Q 437.66 308.14 447.10 302.02
  C 453.60 297.80 460.42 293.18 467.79 289.29
  C 477.76 284.03 483.62 280.59 493.85 275.84
  Q 532.97 257.64 575.01 248.31
  Q 588.47 245.32 606.01 242.58
  Q 622.11 240.06 646.75 238.93
  Q 694.35 236.73 742.37 246.29
  Q 749.68 247.75 754.84 249.20
  C 760.10 250.69 765.40 251.62 771.41 253.35
  Q 788.17 258.17 806.65 265.48
  Q 813.41 268.16 819.23 271.37
  Q 822.38 273.11 831.69 277.55
  Q 837.54 280.35 838.99 286.83
  C 840.34 292.88 836.82 297.44 831.40 299.51
  Q 824.03 302.33 816.69 306.03
  C 812.16 308.32 807.44 309.62 803.34 311.88
  Q 801.33 312.98 791.06 318.29
  C 783.17 322.37 776.57 326.73 769.41 331.16
  C 764.46 334.22 759.99 338.06 757.19 343.40
  Q 756.01 345.64 754.53 353.00
  Q 751.39 368.68 747.07 388.92
  Q 746.29 392.57 744.93 394.63
  Q 743.06 397.46 740.15 398.39
  C 732.84 400.74 727.72 402.87 720.95 404.68
  Q 712.91 406.82 694.74 413.01
  Q 689.47 414.81 687.16 416.73
  C 682.69 420.44 680.74 422.98 680.13 428.94
  C 679.80 432.24 679.66 435.77 678.99 439.58
  Q 676.40 454.15 674.09 473.48
  Q 673.49 478.54 668.49 482.88
  A 4.23 4.19 -74.3 0 1 667.10 483.67
  Q 662.56 485.22 652.09 489.43
  Q 648.47 490.88 638.42 494.45
  Q 632.73 496.48 624.96 500.00
  C 619.59 502.44 616.13 507.08 615.03 513.30
  C 614.49 516.34 612.91 521.53 611.82 526.93
  Q 608.69 542.56 607.39 548.20
  C 604.15 562.25 602.75 570.94 599.80 582.97
  C 597.48 592.42 597.59 599.14 602.96 606.61
  Q 605.61 610.30 608.38 611.95
  C 615.79 616.35 620.28 616.69 629.20 615.42
  Q 644.93 613.18 657.27 610.04
  Q 660.55 609.21 675.56 605.10
  Q 684.87 602.56 692.23 599.93
  C 700.04 597.14 707.07 595.12 714.25 592.23
  Q 738.90 582.32 750.63 576.37
  C 763.85 569.66 775.34 562.95 785.65 556.62
  Q 804.09 545.29 816.76 535.26
  Q 828.57 525.91 828.91 525.64
  Q 845.72 511.98 863.44 492.69
  Q 887.28 466.73 904.86 437.37
  Q 911.19 426.79 922.36 404.59
  Q 923.37 402.58 924.54 399.45
  C 926.99 392.96 934.75 388.68 941.20 392.60
  C 944.07 394.34 945.50 395.64 947.14 398.84
  C 953.74 411.61 958.69 421.38 963.00 433.86
  C 965.26 440.40 967.82 445.51 969.68 451.44
  Q 976.44 473.01 979.74 488.45
  Q 988.96 531.51 987.73 577.97
  Q 986.18 636.01 968.10 691.89
  Q 952.35 740.55 924.31 785.70
  Q 920.63 791.63 918.42 794.59
  C 915.58 798.40 913.35 802.29 910.44 806.43
  Q 908.06 809.81 900.08 819.86
  Q 875.25 851.11 847.44 874.46
  Q 829.13 889.83 808.54 903.28
  Q 803.15 906.79 792.41 912.87
  Q 752.71 935.33 709.03 946.97
  C 701.18 949.06 690.05 951.14 682.99 952.68
  Q 675.98 954.21 661.71 955.81
  C 633.40 958.98 604.48 958.39 575.99 955.08
  C 567.74 954.12 560.88 952.40 552.92 951.03
  C 538.32 948.52 524.98 944.46 510.50 939.50
  Q 503.42 937.08 498.73 935.04
  Q 494.12 933.02 484.20 929.90
  C 480.09 928.61 475.48 930.20 471.57 932.62
  Q 452.86 944.24 447.21 947.86
  Q 438.01 953.73 433.85 956.08
  Q 430.47 957.99 425.09 961.83
  Q 424.58 962.20 416.20 967.40
  Q 403.12 975.52 377.94 991.43
  Q 368.75 997.24 358.87 1003.07
  A 3.46 3.43 -65.2 0 1 357.69 1003.51
  Q 351.56 1004.57 348.26 1004.29
  C 341.29 1003.71 336.63 998.21 335.50 991.47
  Q 335.04 988.73 336.19 982.53
  C 340.08 961.55 343.20 945.23 346.09 930.86
  Q 350.91 906.89 360.85 853.96
  C 362.52 845.07 364.19 838.58 357.14 831.54
  A 5.76 5.75 4.4 0 1 356.47 830.76
  Q 351.64 824.01 348.76 820.72
  Q 344.34 815.67 341.31 810.86
  C 338.03 805.65 331.68 796.88 327.50 789.85
  Q 314.58 768.08 304.54 744.52
  Q 300.53 735.10 298.93 729.85
  C 296.79 722.84 294.14 717.14 292.15 709.82
  C 287.98 694.44 284.12 679.11 282.16 663.40
  C 281.12 655.12 279.88 647.58 279.33 640.07
  Z"/>
</svg>
