<?xml version="1.0" encoding="UTF-8"?>
<svg version="1.1" xmlns="http://www.w3.org/2000/svg" width="360" height="360">
<path d="M 72 0 H 288 A 72 72 0 0 1 360 72 V 288 A 72 72 0 0 1 288 360 H 72 A 72 72 0 0 1 0 288 V 72 A 72 72 0 0 1 72 0 Z" fill="#2A2A2A"></path>
<path d="M0 0 C10.51641511 8.34756211 11.25219148 26.71461602 13.49414062 39.26953125 C13.88524322 41.45335286 14.28788129 43.63484943 14.69140625 45.81640625 C14.94729335 47.22774169 15.20252688 48.63919581 15.45703125 50.05078125 C15.68293945 51.30004395 15.90884766 52.54930664 16.14160156 53.83642578 C16.5942231 57.04695469 16.72195023 60.05689903 16.62890625 63.29296875 C13.06772343 65.31612951 9.50470825 67.3360431 5.94140625 69.35546875 C4.95333984 69.91685547 3.96527344 70.47824219 2.94726562 71.05664062 C0.90226596 72.21481195 -1.14662137 73.36614068 -3.19897461 74.51123047 C-5.32205327 75.70373629 -7.43237889 76.91922296 -9.52954102 78.15673828 C-17.45397841 82.70070292 -25.02104572 85.15673353 -33.93359375 87.04296875 C-35.25603227 87.33531926 -36.57829606 87.62846119 -37.90039062 87.92236328 C-67.0136541 94.30029307 -106.57284971 101.80917652 -134.37109375 87.29296875 C-135.36109375 86.63296875 -136.35109375 85.97296875 -137.37109375 85.29296875 C-136.82006261 77.78320151 -135.01979757 71.08045334 -132.74609375 63.91796875 C-132.38708984 62.77545654 -132.02808594 61.63294434 -131.65820312 60.45581055 C-117.8258715 16.900433 -117.8258715 16.900433 -105.37109375 10.29296875 C-98.31889046 6.7668671 -89.02877533 9.37751698 -81.93359375 11.73046875 C-80.62181696 12.18583585 -79.31059479 12.64280457 -78 13.1015625 C-64.20093106 17.63193497 -49.95322014 15.37021849 -37.1171875 8.97265625 C-34.6680833 7.7283022 -32.23706697 6.45201872 -29.80859375 5.16796875 C-27.94197051 4.19565342 -26.07328324 3.22756579 -24.20240784 2.26345825 C-22.52730617 1.39808686 -20.85806077 0.52140662 -19.18920898 -0.35595703 C-12.70030848 -3.4668966 -6.29232984 -4.12450256 0 0 Z M-40.18359375 22.60546875 C-55.38494959 29.08364253 -72.24855096 32.16015148 -88.37109375 27.29296875 C-91.20532867 27.12284862 -91.20532867 27.12284862 -93.37109375 27.29296875 C-93.37109375 28.28296875 -93.37109375 29.27296875 -93.37109375 30.29296875 C-91.38950117 31.93404665 -91.38950117 31.93404665 -88.80859375 33.35546875 C-87.53822266 34.11537109 -87.53822266 34.11537109 -86.2421875 34.890625 C-76.54841219 39.62540777 -63.56426462 39.98629901 -53.12109375 37.29296875 C-44.21878411 34.04733503 -35.26330037 28.78835135 -28.37109375 22.29296875 C-28.37109375 21.30296875 -28.37109375 20.31296875 -28.37109375 19.29296875 C-32.97819329 19.29296875 -36.07935028 20.7696623 -40.18359375 22.60546875 Z " fill="#ab4b19" transform="translate(240.37109375,100.70703125)"/>
<path d="M0 0 C-0.9296875 7.75 -0.9296875 7.75 -1.5625 10 C-2.47355884 14.16484043 -2.67707175 18.32988969 -1.0625 22.3125 C8.79729514 30.37960512 26.20732456 29.36154393 38.125 29.3125 C38.81232208 29.31134186 39.49964417 29.31018372 40.20779419 29.30899048 C58.31276962 29.24932408 76.31925607 27.45797181 94.06811523 23.8269043 C97.24376692 23.19193985 98.85592062 22.95197354 102 24 C96.82657755 27.18271369 91.64414144 30.34997051 86.453125 33.50390625 C84.28529606 34.82600575 82.12631976 36.16126695 79.96875 37.5 C60.56599285 49.39382185 40.02004228 59.14183781 18 65 C17.33709961 65.18771973 16.67419922 65.37543945 15.99121094 65.56884766 C-3.97921887 71.13030015 -26.75707885 69.73499062 -45.0859375 59.87890625 C-56.91823122 52.24977317 -65.32763239 42.22928058 -69 28.4375 C-70.87228911 18.69229333 -69.81125693 9.7503827 -65 1 C-60.12404818 -5.89650754 -53.81273079 -12.07495384 -45.28125 -13.78125 C-28.70603367 -15.37065431 -14.17291593 -7.44435988 0 0 Z " fill="#ab4b19" transform="translate(94,176)"/>
<path d="M0 0 C3.36718531 3.09264263 5.65853036 6.26264498 6.23828125 10.91015625 C6.59295165 21.19559784 2.27813262 28.63211151 -4.3359375 36.26953125 C-16.13947983 48.36729678 -34.52345386 60.03762706 -51.76171875 61.18359375 C-54.58033979 60.95239796 -55.17718871 60.07137647 -57 58 C-65.9602391 55.01325363 -76.50783521 57.27060798 -85.5625 59 C-86.75157959 59.22002686 -87.94065918 59.44005371 -89.16577148 59.66674805 C-107.64642855 63.16546139 -125.97719791 67.43250932 -144.29423523 71.69313049 C-146.6957389 72.2515534 -149.09770694 72.80794136 -151.49975586 73.36401367 C-154.50378015 74.05945249 -157.50553041 74.76371149 -160.50610352 75.47387695 C-167.64968461 77.14540954 -174.66111927 78.57884457 -182 79 C-179.34645606 76.92046817 -176.72725497 75.23916806 -173.71875 73.72265625 C-172.47182373 73.08602051 -172.47182373 73.08602051 -171.19970703 72.43652344 C-169.86335205 71.75638184 -169.86335205 71.75638184 -168.5 71.0625 C-153.81538804 63.46290279 -139.85223679 54.92374651 -126.0625 45.8125 C-28.12950152 -18.81052556 -28.12950152 -18.81052556 0 0 Z " fill="#ab4b19" transform="translate(332,159)"/>
</svg>
