<?xml version="1.0" encoding="UTF-8" standalone="no"?>
<!DOCTYPE svg PUBLIC "-//W3C//DTD SVG 1.1//EN" "http://www.w3.org/Graphics/SVG/1.1/DTD/svg11.dtd">
<svg xmlns="http://www.w3.org/2000/svg" version="1.1" viewBox="0.00 0.00 760.00 218.00">
<path fill="#ab4b19" d="
  M 555.15 53.91
  Q 561.75 39.70 570.34 25.07
  Q 571.58 22.94 576.37 17.06
  C 583.80 7.93 592.09 12.12 600.68 16.74
  C 606.36 19.79 610.42 20.62 616.86 20.83
  Q 620.65 20.96 629.46 18.23
  Q 638.40 15.47 641.92 14.69
  Q 645.25 13.96 647.93 14.55
  C 652.18 15.50 655.35 20.83 655.62 24.83
  Q 656.31 34.80 656.05 42.25
  Q 656.03 42.89 656.30 45.06
  A 6.66 6.17 46.4 0 1 656.32 46.49
  Q 655.78 52.25 656.31 57.76
  A 1.27 1.27 0.0 0 1 655.45 59.08
  L 631.48 67.17
  A 4.46 4.23 31.3 0 1 630.51 67.38
  Q 618.02 68.67 604.20 68.50
  C 597.36 68.41 592.87 67.66 584.99 66.74
  Q 580.76 66.25 575.41 64.86
  C 566.92 62.65 561.33 60.90 555.48 55.54
  A 1.42 1.41 33.8 0 1 555.15 53.91
  Z
  M 635.39 24.65
  Q 627.77 25.93 623.66 26.94
  C 614.40 29.22 603.36 29.43 594.43 25.10
  Q 591.48 23.68 587.74 22.26
  A 0.29 0.29 0.0 0 0 587.39 22.68
  C 593.93 33.47 607.27 36.61 619.05 33.50
  Q 628.58 30.98 635.49 24.86
  A 0.12 0.12 0.0 0 0 635.39 24.65
  Z"
/>
<path fill="#ab4b19" d="
  M 611.82 75.10
  A 0.11 0.11 0.0 0 1 611.86 75.32
  Q 596.93 81.23 584.37 85.34
  Q 567.57 90.83 550.87 91.59
  Q 536.94 92.23 524.72 87.28
  Q 520.75 85.68 514.99 81.08
  Q 505.45 73.47 503.19 60.75
  A 3.52 3.28 -51.1 0 1 503.14 60.06
  L 503.33 52.64
  A 0.65 0.34 -54.5 0 1 503.35 52.49
  C 505.58 44.13 510.45 37.82 518.67 35.52
  C 524.76 33.82 534.46 37.34 539.01 40.76
  Q 544.64 44.98 549.19 48.41
  A 1.18 1.18 0.0 0 1 549.53 49.90
  C 546.77 55.36 542.26 62.16 550.41 66.10
  Q 556.45 69.01 562.80 70.63
  Q 570.40 72.56 588.42 74.64
  Q 588.47 74.64 588.52 74.64
  L 611.82 75.10
  Z"
/>
<path fill="#2b2b2b" d="
  M 116.54 57.91
  C 121.97 57.91 126.56 57.96 131.57 58.58
  C 146.49 60.42 155.61 68.98 156.08 84.86
  Q 156.50 99.07 156.18 124.53
  C 156.12 129.12 160.02 132.21 163.40 134.58
  Q 163.83 134.89 163.83 135.40
  Q 163.83 135.92 163.40 136.22
  C 160.02 138.60 156.12 141.68 156.17 146.27
  Q 156.47 171.73 156.04 185.94
  C 155.56 201.82 146.43 210.38 131.50 212.20
  C 126.49 212.82 121.90 212.86 116.47 212.86
  C 111.04 212.85 106.46 212.81 101.44 212.19
  C 86.52 210.35 77.40 201.79 76.93 185.91
  Q 76.51 171.70 76.83 146.24
  C 76.89 141.65 72.99 138.56 69.61 136.18
  Q 69.18 135.88 69.18 135.36
  Q 69.18 134.85 69.61 134.54
  C 72.99 132.17 76.90 129.08 76.84 124.49
  Q 76.54 99.03 76.97 84.82
  C 77.46 68.94 86.58 60.39 101.51 58.56
  C 106.52 57.95 111.11 57.91 116.54 57.91
  Z
  M 116.68 194.29
  C 122.16 194.30 127.19 193.15 128.29 186.96
  Q 129.18 181.94 129.21 176.00
  Q 129.28 160.72 129.19 144.50
  C 129.17 141.11 127.42 138.05 125.18 135.96
  A 0.57 0.57 0.0 0 1 125.16 135.14
  C 127.93 132.33 129.28 129.33 129.27 125.24
  Q 129.22 107.41 129.32 89.50
  C 129.36 80.75 126.11 75.93 116.80 75.92
  C 107.50 75.91 104.23 80.72 104.26 89.48
  Q 104.32 107.38 104.23 125.21
  C 104.22 129.30 105.56 132.31 108.32 135.12
  A 0.57 0.57 0.0 0 1 108.30 135.94
  C 106.06 138.03 104.30 141.08 104.27 144.47
  Q 104.15 160.69 104.19 175.97
  Q 104.21 181.91 105.09 186.94
  C 106.17 193.13 111.20 194.29 116.68 194.29
  Z"
/>
<path fill="#2b2b2b" d="
  M 580.22 94.02
  Q 590.21 91.37 605.19 85.66
  Q 605.83 85.41 634.26 74.01
  Q 651.26 67.19 668.16 63.19
  Q 682.65 59.77 695.01 60.55
  Q 698.18 60.74 701.94 63.34
  Q 709.47 68.54 705.81 77.04
  C 701.84 86.24 689.30 93.08 680.51 95.32
  Q 673.34 97.14 665.26 97.82
  A 2.53 2.52 -19.8 0 1 662.98 96.75
  Q 660.05 92.52 654.15 92.44
  Q 632.38 92.18 615.49 92.95
  Q 597.86 93.76 593.15 93.84
  Q 590.26 93.89 586.39 94.22
  Q 581.57 94.63 580.23 94.38
  A 0.19 0.18 -47.2 0 1 580.22 94.02
  Z"
/>
<path fill="#2b2b2b" d="
  M 301.92 76.77
  A 1.38 1.38 0.0 0 0 303.60 76.44
  Q 308.98 70.16 315.00 69.90
  A 1.05 1.05 0.0 0 1 316.10 70.95
  L 316.10 110.62
  A 0.81 0.80 90.0 0 0 316.90 111.43
  L 329.79 111.43
  A 0.58 0.58 0.0 0 1 330.37 112.01
  L 330.37 124.75
  A 0.59 0.59 0.0 0 1 329.78 125.34
  L 316.74 125.34
  A 0.76 0.75 -0.7 0 0 315.98 126.11
  Q 316.17 133.46 316.06 150.50
  C 316.04 152.79 319.71 156.14 321.53 157.59
  A 0.84 0.83 43.8 0 1 321.56 158.88
  C 318.60 161.41 316.03 163.67 316.18 167.79
  Q 316.52 176.66 316.04 186.99
  Q 315.99 188.09 316.37 190.63
  C 316.98 194.74 319.07 195.72 323.00 195.86
  Q 326.28 195.99 329.86 195.89
  A 0.55 0.55 0.0 0 1 330.43 196.44
  L 330.43 210.78
  A 0.52 0.51 89.4 0 1 329.93 211.30
  Q 321.03 211.47 310.62 211.44
  Q 302.87 211.42 299.69 209.67
  C 293.82 206.44 292.24 200.18 291.90 193.68
  Q 291.72 190.34 291.82 166.17
  A 3.32 3.26 25.4 0 0 291.03 164.01
  L 286.16 158.27
  A 0.33 0.33 0.0 0 1 286.19 157.80
  C 289.32 154.95 291.87 153.39 291.83 149.36
  Q 291.73 140.20 291.98 125.92
  A 0.58 0.58 0.0 0 0 291.40 125.33
  L 280.89 125.33
  A 0.74 0.74 0.0 0 1 280.15 124.59
  L 280.15 111.93
  A 0.54 0.54 0.0 0 1 280.69 111.39
  L 291.39 111.39
  A 0.48 0.47 1.2 0 0 291.87 110.94
  Q 292.25 102.09 291.75 92.48
  Q 291.36 84.90 287.72 82.18
  A 1.03 1.03 0.0 0 1 287.30 81.35
  L 287.30 77.01
  A 0.86 0.86 0.0 0 1 288.03 76.16
  C 293.46 75.31 297.66 74.58 301.92 76.77
  Z"
/>
<path fill="#2b2b2b" d="
  M 433.72 210.81
  L 433.72 203.04
  A 0.98 0.97 -10.5 0 1 434.35 202.13
  C 437.55 200.91 439.58 200.38 441.04 197.05
  Q 442.43 193.88 442.45 188.75
  Q 442.52 171.45 442.37 166.09
  C 442.29 163.33 438.65 160.40 436.44 158.69
  A 0.74 0.74 0.0 0 1 436.41 157.55
  C 439.29 154.98 442.23 152.72 442.32 149.04
  Q 442.77 130.59 442.43 96.58
  C 442.36 90.17 442.62 81.61 435.80 79.73
  A 0.98 0.97 -82.2 0 1 435.09 78.79
  L 435.09 70.88
  A 0.48 0.48 0.0 0 1 435.55 70.40
  Q 443.12 70.14 448.63 70.66
  C 452.56 71.04 453.97 72.46 456.80 74.23
  A 2.96 2.91 -27.1 0 0 458.20 74.67
  Q 464.36 75.02 471.71 77.14
  A 1.55 1.55 0.0 0 1 472.32 79.77
  C 468.18 83.51 467.30 87.12 467.27 92.89
  Q 467.23 100.90 467.24 148.75
  C 467.24 152.58 470.39 155.50 473.25 157.44
  A 0.70 0.70 0.0 0 1 473.29 158.57
  C 470.76 160.56 468.53 162.30 467.47 164.91
  A 2.74 2.69 56.3 0 0 467.28 165.91
  Q 467.14 182.92 467.34 191.97
  Q 467.46 197.80 471.92 200.60
  C 472.93 201.24 474.70 201.38 475.77 201.86
  A 0.85 0.85 0.0 0 1 476.26 202.63
  L 476.26 210.67
  A 0.72 0.72 0.0 0 1 475.54 211.39
  L 434.30 211.39
  A 0.58 0.58 0.0 0 1 433.72 210.81
  Z"
/>
<path fill="#2b2b2b" d="
  M 544.14 205.82
  A 0.34 0.33 61.9 0 0 543.53 205.63
  C 539.42 211.84 532.72 212.97 525.60 213.01
  Q 516.81 213.07 511.19 210.79
  C 501.26 206.75 499.81 196.77 499.91 187.30
  C 499.96 182.63 498.34 179.75 494.81 177.39
  A 1.09 1.08 -44.8 0 1 494.82 175.59
  Q 497.37 173.90 499.25 171.23
  A 2.67 2.65 -24.8 0 0 499.72 169.97
  Q 499.84 168.83 500.91 165.17
  Q 504.24 153.77 517.02 151.56
  C 525.75 150.05 537.08 149.63 542.95 156.51
  A 0.37 0.37 0.0 0 0 543.61 156.26
  Q 543.49 150.46 543.58 137.52
  C 543.61 131.94 543.10 125.39 536.51 124.95
  C 530.35 124.53 525.42 125.50 525.01 132.79
  Q 524.84 135.92 525.03 142.48
  A 1.02 1.02 0.0 0 1 524.01 143.53
  L 502.63 143.53
  A 0.94 0.94 0.0 0 1 501.69 142.61
  C 501.46 135.30 501.23 128.22 504.08 121.64
  C 509.69 108.72 525.75 109.29 538.00 109.33
  C 553.49 109.38 566.60 113.61 567.12 131.67
  Q 567.36 140.18 567.17 151.25
  C 567.10 155.39 570.50 158.24 573.06 160.44
  A 0.78 0.78 0.0 0 1 573.02 161.66
  Q 569.61 164.18 567.78 167.08
  A 2.52 2.51 -28.4 0 0 567.39 168.39
  Q 567.36 173.04 567.13 189.23
  C 567.05 194.97 568.33 200.57 574.65 201.64
  A 0.82 0.81 5.1 0 1 575.33 202.44
  L 575.33 210.80
  A 0.61 0.60 -0.0 0 1 574.72 211.40
  L 544.60 211.40
  A 0.46 0.45 0.0 0 1 544.14 210.95
  L 544.14 205.82
  Z
  M 543.6544 174.5510
  A 8.59 8.59 0.0 0 0 535.1852 165.8419
  L 532.2654 165.8011
  A 8.59 8.59 0.0 0 0 523.5563 174.2703
  L 523.3656 187.9290
  A 8.59 8.59 0.0 0 0 531.8348 196.6381
  L 534.7546 196.6789
  A 8.59 8.59 0.0 0 0 543.4637 188.2097
  L 543.6544 174.5510
  Z"
/>
<path fill="#2b2b2b" d="
  M 393.15 146.63
  A 0.53 0.53 0.0 0 1 392.62 146.08
  Q 392.81 138.17 392.23 132.05
  C 391.61 125.48 385.83 124.46 380.28 125.23
  Q 375.85 125.85 374.74 130.79
  Q 374.00 134.11 373.88 143.78
  C 373.80 150.50 373.40 153.61 377.69 157.59
  A 1.02 1.02 0.0 0 1 377.68 159.10
  Q 375.36 161.23 374.22 164.19
  A 3.19 3.14 56.4 0 0 374.01 165.27
  Q 373.72 178.79 374.09 187.62
  C 374.27 191.93 375.83 195.76 380.74 196.48
  C 388.24 197.58 392.15 194.60 392.61 186.92
  Q 392.86 182.80 392.69 175.17
  A 0.57 0.57 0.0 0 1 393.26 174.58
  L 414.86 174.58
  A 0.54 0.53 88.3 0 1 415.39 175.09
  Q 415.97 184.50 415.24 192.49
  C 413.92 207.01 404.32 212.21 391.34 212.63
  C 384.63 212.85 377.20 213.05 370.54 212.28
  C 358.00 210.81 350.23 203.46 349.90 190.00
  Q 349.50 173.87 349.80 166.75
  C 349.92 163.86 346.19 160.67 343.91 158.98
  A 0.76 0.76 0.0 0 1 343.89 157.77
  C 346.44 155.74 349.40 153.34 349.66 150.02
  C 350.47 139.52 346.29 120.02 360.47 113.11
  C 368.63 109.13 376.37 109.24 386.51 109.44
  C 401.39 109.74 414.06 113.08 415.33 130.61
  Q 415.89 138.23 415.56 146.07
  A 0.58 0.58 0.0 0 1 414.98 146.63
  L 393.15 146.63
  Z"
/>
<path fill="#2b2b2b" d="
  M 665.53 176.21
  A 0.25 0.25 0.0 0 0 666.02 176.20
  Q 667.61 167.86 668.07 165.51
  Q 668.25 164.61 666.82 161.30
  A 0.91 0.89 49.8 0 1 666.88 160.48
  L 668.83 157.33
  A 1.39 1.18 -26.4 0 0 669.01 156.91
  Q 671.63 146.32 673.94 132.06
  C 674.58 128.10 675.84 121.28 669.97 120.83
  A 0.99 0.98 2.2 0 1 669.06 119.85
  L 669.06 112.20
  A 0.74 0.73 -0.0 0 1 669.80 111.47
  L 698.14 111.47
  A 1.54 1.54 0.0 0 1 699.68 113.01
  L 699.68 119.80
  A 1.61 1.61 0.0 0 1 698.13 121.41
  C 694.33 121.56 691.48 127.61 690.69 131.23
  Q 687.17 147.40 685.65 154.07
  A 3.84 3.83 -52.6 0 0 686.00 156.70
  Q 687.38 159.32 689.49 161.29
  A 0.55 0.55 0.0 0 1 689.47 162.11
  L 683.94 166.82
  A 4.69 4.66 -13.1 0 0 682.44 169.21
  Q 679.85 179.41 676.49 195.24
  Q 675.33 200.74 680.42 202.53
  A 1.10 1.09 9.9 0 1 681.15 203.56
  L 681.15 210.62
  A 0.80 0.79 -90.0 0 1 680.36 211.42
  L 645.49 211.42
  A 0.74 0.74 0.0 0 1 644.75 210.68
  L 644.75 204.04
  A 1.70 1.69 79.4 0 1 645.83 202.46
  Q 650.50 200.64 649.48 195.16
  Q 645.55 173.93 644.18 168.27
  Q 643.86 166.97 642.30 163.84
  A 2.35 2.29 -59.4 0 1 642.04 162.77
  Q 642.03 162.00 642.35 160.94
  C 642.89 159.12 642.22 155.79 641.81 154.45
  A 0.49 0.49 0.0 0 0 640.86 154.49
  Q 640.04 158.34 640.96 161.35
  A 1.64 1.61 48.6 0 1 640.90 162.48
  L 639.14 166.57
  A 1.71 1.60 64.9 0 0 639.01 166.97
  Q 635.99 180.41 633.16 196.61
  Q 632.33 201.33 636.75 202.63
  A 1.16 1.15 -82.0 0 1 637.58 203.74
  L 637.58 210.83
  A 0.56 0.56 0.0 0 1 637.02 211.39
  L 601.29 211.39
  A 0.49 0.48 -0.0 0 1 600.80 210.91
  L 600.80 203.71
  A 1.15 1.14 -10.4 0 1 601.54 202.64
  Q 606.93 200.53 605.56 194.39
  Q 602.69 181.55 600.81 171.24
  C 600.40 169.00 600.04 167.76 598.50 166.29
  Q 596.18 164.05 593.51 162.26
  A 0.68 0.68 0.0 0 1 593.46 161.17
  Q 596.02 159.07 596.95 156.61
  A 2.91 2.91 0.0 0 0 597.09 155.01
  Q 593.53 137.05 591.50 128.54
  Q 589.93 121.96 584.52 121.09
  A 0.97 0.97 0.0 0 1 583.70 120.13
  L 583.70 112.28
  A 0.81 0.81 0.0 0 1 584.51 111.47
  L 620.11 111.47
  A 0.70 0.69 90.0 0 1 620.80 112.17
  L 620.80 119.65
  A 1.24 1.24 0.0 0 1 619.97 120.82
  Q 614.33 122.75 615.36 129.50
  C 615.92 133.13 616.87 136.46 617.43 140.51
  C 618.65 149.49 619.04 155.27 622.50 160.39
  A 1.70 1.69 -43.4 0 1 622.44 162.39
  Q 621.07 164.14 621.42 166.01
  Q 622.32 170.89 622.87 175.85
  A 0.31 0.31 0.0 0 0 623.49 175.88
  L 625.66 165.62
  A 2.01 1.96 42.4 0 0 625.60 164.55
  L 624.66 161.75
  A 1.39 1.37 51.6 0 1 624.79 160.56
  L 626.17 158.33
  A 7.77 7.61 -23.5 0 0 627.15 155.91
  Q 629.53 145.06 632.23 129.79
  C 633.00 125.44 632.82 122.03 628.29 120.77
  A 1.00 0.99 -82.4 0 1 627.56 119.81
  L 627.56 111.71
  A 0.26 0.26 0.0 0 1 627.82 111.45
  L 662.12 111.45
  A 0.65 0.64 0.0 0 1 662.77 112.09
  L 662.77 119.69
  A 1.20 1.19 -11.6 0 1 662.04 120.79
  Q 656.67 123.07 657.69 128.68
  Q 659.46 138.40 662.65 155.87
  A 1.00 0.73 36.1 0 0 662.74 156.15
  L 664.87 160.43
  A 1.99 1.99 0.0 0 1 664.83 162.27
  Q 663.67 164.39 663.90 166.18
  Q 664.66 172.38 665.53 176.21
  Z"
/>
<path fill="#2b2b2b" d="
  M 234.45 205.97
  A 0.37 0.37 0.0 0 0 233.79 205.75
  Q 230.00 210.85 223.74 212.10
  C 208.09 215.22 189.87 211.64 189.90 191.72
  Q 189.93 172.22 189.79 168.75
  C 189.59 163.68 187.71 162.23 183.88 159.03
  A 0.91 0.90 45.5 0 1 183.89 157.63
  C 187.00 155.13 189.57 152.97 189.69 148.75
  Q 190.05 136.71 189.65 129.56
  Q 189.23 121.87 182.29 120.77
  A 0.62 0.61 -85.7 0 1 181.77 120.16
  L 181.77 111.91
  A 0.42 0.41 90.0 0 1 182.18 111.49
  L 219.82 111.49
  A 0.66 0.65 90.0 0 1 220.47 112.15
  L 220.47 120.21
  A 0.78 0.78 0.0 0 1 219.94 120.95
  Q 213.89 122.99 213.98 129.27
  Q 214.24 147.39 214.02 151.00
  Q 213.80 154.65 217.66 157.53
  A 1.01 1.01 0.0 0 1 217.74 159.08
  Q 215.46 161.20 214.39 163.80
  A 3.58 3.50 56.9 0 0 214.12 165.16
  Q 214.21 173.80 214.06 186.73
  C 214.02 190.63 215.02 194.67 219.14 195.77
  C 226.03 197.60 233.08 195.32 233.31 187.36
  Q 233.62 176.37 233.40 165.95
  A 3.81 3.58 -57.3 0 0 233.20 164.87
  Q 232.20 161.96 229.59 158.93
  A 1.07 1.06 47.3 0 1 229.64 157.49
  C 232.02 155.11 233.30 153.14 233.36 149.49
  Q 233.62 134.42 233.18 128.35
  Q 232.89 124.27 229.82 121.85
  C 229.18 121.35 227.92 121.12 227.17 120.58
  A 0.97 0.97 0.0 0 1 226.76 119.79
  L 226.76 111.99
  A 0.52 0.52 0.0 0 1 227.28 111.47
  L 264.41 111.47
  A 0.61 0.61 0.0 0 1 265.02 112.08
  L 265.02 119.83
  A 1.11 1.11 0.0 0 1 264.21 120.90
  C 258.35 122.50 257.29 126.65 257.33 133.05
  Q 257.38 141.11 257.32 150.11
  C 257.31 152.79 260.98 156.19 262.96 157.86
  A 0.68 0.67 45.7 0 1 262.95 158.90
  Q 259.69 161.51 257.77 164.51
  A 2.74 2.63 -29.6 0 0 257.34 165.96
  Q 257.26 176.95 257.38 191.75
  Q 257.46 200.49 264.39 202.10
  A 0.93 0.93 0.0 0 1 265.10 203.00
  L 265.10 210.56
  A 0.83 0.82 -90.0 0 1 264.28 211.39
  L 235.26 211.39
  A 0.81 0.81 0.0 0 1 234.45 210.58
  L 234.45 205.97
  Z"
/>
<path fill="#ab4b19" d="
  M 33.84 145.15
  L 47.22 149.86
  A 1.33 1.33 0.0 0 1 47.22 152.38
  L 33.80 156.99
  A 1.33 1.33 0.0 0 0 32.98 157.81
  L 28.27 171.19
  A 1.33 1.33 0.0 0 1 25.75 171.19
  L 21.14 157.77
  A 1.33 1.33 0.0 0 0 20.32 156.95
  L 6.94 152.24
  A 1.33 1.33 0.0 0 1 6.94 149.72
  L 20.36 145.11
  A 1.33 1.33 0.0 0 0 21.18 144.29
  L 25.89 130.91
  A 1.33 1.33 0.0 0 1 28.41 130.91
  L 33.02 144.33
  A 1.33 1.33 0.0 0 0 33.84 145.15
  Z"
/>
<path fill="#ab4b19" d="
  M 738.52 145.05
  L 751.78 149.74
  A 1.33 1.33 0.0 0 1 751.78 152.24
  L 738.52 156.93
  A 1.33 1.33 0.0 0 0 737.71 157.74
  L 733.02 171.00
  A 1.33 1.33 0.0 0 1 730.52 171.00
  L 725.83 157.74
  A 1.33 1.33 0.0 0 0 725.02 156.93
  L 711.76 152.24
  A 1.33 1.33 0.0 0 1 711.76 149.74
  L 725.02 145.05
  A 1.33 1.33 0.0 0 0 725.83 144.24
  L 730.52 130.98
  A 1.33 1.33 0.0 0 1 733.02 130.98
  L 737.71 144.24
  A 1.33 1.33 0.0 0 0 738.52 145.05
  Z"
/>
</svg>
